<svg version="1.1" viewBox="0 0 216.41 232.01" xmlns="http://www.w3.org/2000/svg">
<path d="m211.81 139.09c-3.1812 16.366-28.492 34.278-57.562 37.749-15.159 1.8087-30.084 3.4712-45.999 2.7412-26.028-1.1925-46.565-6.2125-46.565-6.2125 0 2.5337 0.15626 4.9462 0.46875 7.2025 3.3838 25.686 25.47 27.225 46.391 27.943 21.116 0.72248 39.919-5.2063 39.919-5.2063l0.8675 19.09s-14.77 7.9312-41.081 9.39c-14.509 0.79753-32.524-0.365-53.506-5.9187-45.507-12.045-53.334-60.554-54.531-109.77-0.365-14.614-0.13999-28.394-0.13999-39.919 0-50.33 32.976-65.083 32.976-65.083 16.628-7.6362 45.159-10.847 74.82-11.09h0.72876c29.661 0.24236 58.211 3.4537 74.837 11.09 0 0 32.975 14.753 32.975 65.083 0 0 0.41374 37.134-4.5988 62.915" fill="#589dcd"/>
<path d="m137.16 120.55c9.269 0.40823 17.226-8.4642 16.198-17.61v-62.084h25.755c-0.0756 22.226 0.15383 44.46-0.11959 66.681-1.3439 20.276-19.214 38.051-39.664 38.555-11.411 0.6582-23.054-3.4856-31.163-11.612-14.41 14.724-40.038 15.579-55.519 2.045-10.447-8.4462-16.184-21.979-15.267-35.351v-60.318h25.755c0.0466 21.721-0.0936 43.446 0.0709 65.164 0.42611 9.3475 10.214 16.377 19.235 14.236 8.2672-1.3883 13.93-9.854 12.928-18.023v-61.377h25.755c0.0532 21.721-0.10695 43.449 0.081 65.166 0.71474 8.023 7.8905 14.584 15.955 14.528z" fill="#fff"/>
</svg>
