<svg id="mastodon-svg-logo-full" version="1.1" viewBox="0 0 713.36 175.87" xmlns="http://www.w3.org/2000/svg">
<path d="m160.69 105.43c-2.4146 12.406-21.616 25.983-43.671 28.614-11.501 1.3725-22.823 2.6313-34.897 2.0788-19.747-0.90375-35.328-4.71-35.328-4.71 0 1.9213 0.11884 3.75 0.3553 5.46 2.5672 19.47 19.324 20.638 35.196 21.181 16.02 0.54751 30.283-3.9475 30.283-3.9475l0.65931 14.473s-11.206 6.0113-31.167 7.1163c-11.008 0.60501-24.675-0.27623-40.595-4.485-34.525-9.1313-40.462-45.901-41.37-83.212-0.27774-11.078-0.10634-21.524-0.10634-30.259 0-38.153 25.018-49.335 25.018-49.335 12.615-5.7888 34.261-8.2225 56.764-8.4063h0.55298c22.503 0.18376 44.163 2.6175 56.777 8.4063 0 0 25.018 11.183 25.018 49.335 0 0 0.31275 28.148-3.4892 47.69" fill="#589dcd"/>
<path transform="scale(.9375)" d="m722.21 29.566c-5.523 0-10.658 1.1215-15.404 3.3633-4.7463 2.1556-8.845 5.13-12.297 8.9238-3.4518 3.7076-6.1695 8.0189-8.1543 12.934-1.8985 4.9147-2.8476 10.088-2.8476 15.52v43.197h20.322v-43.197c0-2.5867 0.43196-5.0858 1.2949-7.5 0.94926-2.5005 2.2006-4.6561 3.7539-6.4668 1.6396-1.8969 3.5805-3.4064 5.8242-4.5273 2.2437-1.2071 4.7463-1.8105 7.5078-1.8105 2.6752 0 5.1352 0.60344 7.3789 1.8105 2.33 1.1209 4.2709 2.6304 5.8242 4.5273 1.6396 1.8107 2.8909 3.9663 3.7539 6.4668 0.94925 2.4142 1.4238 4.9133 1.4238 7.5v43.197h20.322v-43.197c0-5.432-0.99175-10.605-2.9766-15.52-1.8985-4.9147-4.5736-9.226-8.0254-12.934-3.4518-3.7938-7.5506-6.7683-12.297-8.9238-4.7463-2.2418-9.8814-3.3633-15.404-3.3633zm-256.47 0.25977c-5.9544 0-11.521 1.1642-16.699 3.4922-5.0915 2.2418-9.535 5.3443-13.332 9.3105-3.797 3.9662-6.7742 8.5803-8.9316 13.84-2.1574 5.1734-3.2363 10.692-3.2363 16.555-1e-5 5.8631 1.0789 11.424 3.2363 16.684 2.1574 5.1734 5.1346 9.7427 8.9316 13.709 3.797 3.88 8.2406 6.9845 13.332 9.3125 5.1778 2.328 10.745 3.4922 16.699 3.4922 5.9544 0 11.477-1.1642 16.568-3.4922 5.0915-2.328 9.535-5.4325 13.332-9.3125 3.797-3.9662 6.7742-8.5356 8.9316-13.709 2.1574-5.2596 3.2363-10.82 3.2363-16.684 0-5.8631-1.0789-11.381-3.2363-16.555-2.1574-5.2596-5.1346-9.8736-8.9316-13.84-3.797-3.9662-8.2406-7.0688-13.332-9.3105-5.0915-2.328-10.614-3.4922-16.568-3.4922zm171.2 0c-5.9544 0-11.521 1.1642-16.699 3.4922-5.0915 2.2418-9.535 5.3443-13.332 9.3105-3.797 3.9662-6.7742 8.5803-8.9316 13.84-2.1574 5.1734-3.2363 10.692-3.2363 16.555 0 5.8631 1.0789 11.424 3.2363 16.684 2.1574 5.1734 5.1346 9.7427 8.9316 13.709 3.797 3.88 8.2406 6.9845 13.332 9.3125 5.1778 2.328 10.745 3.4922 16.699 3.4922 5.9544 0 11.477-1.1642 16.568-3.4922 5.0915-2.328 9.535-5.4325 13.332-9.3125 3.797-3.9662 6.7742-8.5356 8.9316-13.709 2.1574-5.2596 3.2363-10.82 3.2363-16.684 0-5.8631-1.0789-11.381-3.2363-16.555-2.1574-5.2596-5.1346-9.8736-8.9316-13.84-3.797-3.9662-8.2406-7.0688-13.332-9.3105-5.0915-2.328-10.614-3.4922-16.568-3.4922zm-558.33 1.6816v50.697c0 4.5698 0.86392 8.8811 2.5898 12.934 1.8122 4.0525 4.2277 7.5877 7.248 10.605s6.5593 5.4335 10.615 7.2441c4.0559 1.7244 8.3697 2.5859 12.943 2.5859 4.4011 0 8.587-0.77612 12.557-2.3281 3.9696-1.6382 7.5086-3.9666 10.615-6.9844 3.1067 3.0178 6.6437 5.3462 10.613 6.9844 4.0559 1.552 8.2418 2.3281 12.557 2.3281 4.66 0 9.0183-0.86149 13.074-2.5859 4.0559-1.8107 7.5929-4.2264 10.613-7.2441 3.0204-3.0178 5.3952-6.553 7.1211-10.605 1.8122-4.0525 2.7168-8.3638 2.7168-12.934v-50.697h-20.58v50.697c0 3.6213-1.2513 6.6831-3.7539 9.1836-2.5026 2.5004-5.567 3.75-9.1914 3.75-3.6244 0-6.6869-1.2496-9.1895-3.75-2.4163-2.5005-3.625-5.5622-3.625-9.1836v-50.697h-20.582v50.697c0 3.6213-1.2513 6.6831-3.7539 9.1836-2.5026 2.5004-5.567 3.75-9.1914 3.75s-6.6869-1.2496-9.1894-3.75c-2.4163-2.5005-3.625-5.5622-3.625-9.1836v-50.697zm238.73 0.12891c-5.6092 0-10.787 1.1215-15.533 3.3633s-8.847 5.2589-12.299 9.0527c-3.4518 3.7076-6.1695 8.0616-8.1543 13.062-1.9848 4.9147-2.9766 10.088-2.9766 15.52 0 5.432 0.99176 10.607 2.9766 15.521 1.9848 4.9147 4.7024 9.2687 8.1543 13.062 3.4518 3.7076 7.5525 6.682 12.299 8.9238 4.7463 2.2418 9.924 3.3613 15.533 3.3613h38.961v-51.215h-39.609v20.564h19.158v10.088h-18.51c-2.7615 0-5.2641-0.56074-7.5078-1.6816-2.2437-1.2071-4.1866-2.7167-5.8262-4.5273-1.5533-1.8969-2.8046-4.0526-3.7539-6.4668-0.86296-2.5005-1.2949-5.0442-1.2949-7.6309s0.43196-5.0858 1.2949-7.5c0.94926-2.5005 2.2006-4.7008 3.7539-6.5977 1.6396-1.8969 3.5825-3.4045 5.8262-4.5254 2.2437-1.2071 4.7463-1.8105 7.5078-1.8105h38.961v-20.564zm43.477 0 21.229 60.916c0.94925 2.8453 2.3304 5.5191 4.1426 8.0195 1.8985 2.5004 4.0564 4.7415 6.4726 6.7246 2.5026 1.8969 5.2202 3.4064 8.1543 4.5273 2.9341 1.1209 5.9113 1.6797 8.9316 1.6797h12.945v-20.305h-12.945c-2.5026 0-4.3583-0.6888-5.5664-2.0684-1.2081-1.3796-2.2425-3.1918-3.1055-5.4336l-7.3789-21.34h14.627v-20.564h-21.746l-4.2715-12.156zm151.48 0v81.867h38.961c5.3504 0 10.4-1.0769 15.146-3.2324 4.7463-2.1556 8.8876-5.0874 12.426-8.7949 3.5381-3.7076 6.3004-8.0189 8.2852-12.934 2.0711-5.0009 3.1055-10.304 3.1055-15.908 0-5.6907-1.0344-10.994-3.1055-15.908-1.9848-5.0009-4.747-9.3549-8.2852-13.062-3.5382-3.7076-7.6795-6.6394-12.426-8.7949-4.7463-2.1556-9.7961-3.2324-15.146-3.2324zm-315.86 0.51758v42.68c0 5.3458 0.94914 10.476 2.8477 15.391 1.9848 4.9147 4.7024 9.2687 8.1543 13.063 3.4518 3.7076 7.5526 6.682 12.299 8.9238 4.7463 2.1556 9.8794 3.2344 15.402 3.2344s10.658-1.0788 15.404-3.2344c4.7463-2.2418 8.845-5.2163 12.297-8.9238 3.4518-3.7938 6.1269-8.1478 8.0254-13.063 1.9848-4.9147 2.9785-10.045 2.9785-15.391v-42.68h-20.322v42.68c0 2.5867-0.47457 5.0877-1.4238 7.502-0.86296 2.4142-2.1143 4.5699-3.7539 6.4668-1.5533 1.8107-3.4962 3.3183-5.8262 4.5254-2.2437 1.1209-4.7037 1.6816-7.3789 1.6816-2.7615 0-5.2641-0.56075-7.5078-1.6816-2.2437-1.2071-4.1846-2.7147-5.8242-4.5254-1.5533-1.8969-2.8046-4.0526-3.7539-6.4668-0.86296-2.4142-1.2949-4.9153-1.2949-7.502v-42.68zm-148.72 8.8457c-5.9277 0-10.736 4.8025-10.736 10.727 0 5.9227 4.8086 10.725 10.736 10.725 5.9291 0 10.734-4.8019 10.734-10.725 0-5.924-4.8053-10.727-10.734-10.727zm418.01 9.1309c3.1067 0 5.9541 0.64612 8.543 1.9395 2.6752 1.2071 4.9628 2.8894 6.8613 5.0449 1.9848 2.0693 3.5364 4.4831 4.6582 7.2422 1.1219 2.7591 1.6836 5.6482 1.6836 8.666 0 3.0178-0.56174 5.9069-1.6836 8.666-1.1218 2.7591-2.6734 5.1728-4.6582 7.2422-1.8985 2.0693-4.1862 3.7496-6.8613 5.043-2.5889 1.2071-5.4363 1.8105-8.543 1.8105s-5.9986-0.60343-8.6738-1.8105c-2.6752-1.2933-5.0054-2.9736-6.9902-5.043-1.8985-2.0693-3.4074-4.4831-4.5293-7.2422-1.1218-2.7591-1.6836-5.6482-1.6836-8.666 0-3.0178 0.56175-5.9069 1.6836-8.666 1.1219-2.7591 2.6308-5.1728 4.5293-7.2422 1.9848-2.1556 4.3151-3.8378 6.9902-5.0449 2.6752-1.2933 5.5672-1.9395 8.6738-1.9395zm171.2 0c3.1067 0 5.9541 0.64612 8.543 1.9395 2.6752 1.2071 4.9628 2.8894 6.8613 5.0449 1.9848 2.0693 3.5364 4.4831 4.6582 7.2422 1.1218 2.7591 1.6836 5.6482 1.6836 8.666 0 3.0178-0.56174 5.9069-1.6836 8.666-1.1218 2.7591-2.6734 5.1728-4.6582 7.2422-1.8985 2.0693-4.1861 3.7496-6.8613 5.043-2.5889 1.2071-5.4363 1.8105-8.543 1.8105s-5.9987-0.60343-8.6738-1.8105c-2.6752-1.2933-5.0054-2.9736-6.9902-5.043-1.8985-2.0693-3.4074-4.4831-4.5293-7.2422-1.1218-2.7591-1.6836-5.6482-1.6836-8.666 0-3.0178 0.56175-5.9069 1.6836-8.666 1.1218-2.7591 2.6308-5.1728 4.5293-7.2422 1.9848-2.1556 4.3151-3.8378 6.9902-5.0449 2.6752-1.2933 5.5672-1.9395 8.6738-1.9395zm-104.06 2.0703h18.381c2.5889 0 5.0063 0.56074 7.25 1.6816 2.2437 1.0347 4.1846 2.4996 5.8242 4.3965 1.7259 1.8107 3.0644 3.9663 4.0137 6.4668 0.94926 2.4142 1.4238 5.0433 1.4238 7.8887 0 2.8453-0.47457 5.5191-1.4238 8.0195-0.94926 2.4142-2.2878 4.5272-4.0137 6.3379-1.6396 1.8107-3.5805 3.2756-5.8242 4.3965-2.2437 1.0347-4.6611 1.5527-7.25 1.5527h-18.381z" fill="#fff"/>
</svg>
