<?xml version="1.0" encoding="UTF-8" standalone="no"?>
<svg
   xmlns:dc="http://purl.org/dc/elements/1.1/"
   xmlns:cc="http://creativecommons.org/ns#"
   xmlns:rdf="http://www.w3.org/1999/02/22-rdf-syntax-ns#"
   xmlns:svg="http://www.w3.org/2000/svg"
   xmlns="http://www.w3.org/2000/svg"
   xmlns:sodipodi="http://sodipodi.sourceforge.net/DTD/sodipodi-0.dtd"
   xmlns:inkscape="http://www.inkscape.org/namespaces/inkscape"
   id="svg5338"
   version="1.1"
   width="201.3257mm"
   height="49.633801mm"
   viewBox="0 0 713.35878 175.8678"
   sodipodi:docname="logo_full.svg"
   inkscape:version="0.92.1 r">
  <sodipodi:namedview
     pagecolor="#ffffff"
     bordercolor="#666666"
     borderopacity="1"
     objecttolerance="10"
     gridtolerance="10"
     guidetolerance="10"
     inkscape:pageopacity="0"
     inkscape:pageshadow="2"
     inkscape:window-width="1197"
     inkscape:window-height="763"
     id="namedview4579"
     showgrid="false"
     inkscape:zoom="0.57496489"
     inkscape:cx="219.72929"
     inkscape:cy="140.94633"
     inkscape:window-x="0"
     inkscape:window-y="23"
     inkscape:window-maximized="0"
     inkscape:current-layer="svg5338" />
  <metadata
     id="metadata5344">
    <rdf:RDF>
      <cc:Work
         rdf:about="">
        <dc:format>image/svg+xml</dc:format>
        <dc:type
           rdf:resource="http://purl.org/dc/dcmitype/StillImage" />
        <dc:title />
      </cc:Work>
    </rdf:RDF>
  </metadata>
  <defs
     id="defs5342">
    <clipPath
       id="clipPath16"
       clipPathUnits="userSpaceOnUse">
      <path
         id="path18"
         d="M 0,38 38,38 38,0 0,0 0,38 Z" />
    </clipPath>
  </defs>
  <g
     id="g4627">
    <flowRoot
       transform="matrix(3.5433072,0,0,3.5433072,-15.36786,-438.24724)"
       xml:space="preserve"
       id="flowRoot4533"
       style="font-style:normal;font-weight:normal;font-size:40px;line-height:125%;font-family:sans-serif;letter-spacing:0px;word-spacing:0px;fill:#000000;fill-opacity:1;stroke:none;stroke-width:1px;stroke-linecap:butt;stroke-linejoin:miter;stroke-opacity:1"><flowRegion
         id="flowRegion4535"><rect
           id="rect4537"
           width="280"
           height="224.28572"
           x="167.14285"
           y="349.66254" /></flowRegion><flowPara
         id="flowPara4539" /></flowRoot>    <text
       xml:space="preserve"
       style="font-style:normal;font-weight:normal;font-size:37.5px;line-height:125%;font-family:sans-serif;letter-spacing:0px;word-spacing:0px;fill:#000000;fill-opacity:1;stroke:none;stroke-width:0.9375px;stroke-linecap:butt;stroke-linejoin:miter;stroke-opacity:1"
       x="533.73932"
       y="30.186396"
       id="text4551"><tspan
         id="tspan4549"
         x="533.73932"
         y="64.398804"
         style="stroke-width:0.9375px" /></text>
    <path
       inkscape:connector-curvature="0"
       id="path4485"
       d="m 160.69181,105.43132 c -2.41457,12.4063 -21.61601,25.9826 -43.67115,28.61386 -11.50109,1.37251 -22.823288,2.63127 -34.897375,2.07876 -19.74691,-0.90375 -35.327748,-4.71002 -35.327748,-4.71002 0,1.92126 0.118838,3.75002 0.355301,5.46003 2.567198,19.47007 19.324047,20.63758 35.196388,21.18133 16.019965,0.54751 30.283434,-3.94751 30.283434,-3.94751 l 0.65931,14.47256 c 0,0 -11.20585,6.01127 -31.166685,7.11627 -11.008177,0.60501 -24.674877,-0.27623 -40.59476,-4.48501 C 7.0039645,162.0803 1.0663805,125.31015 0.1581027,87.999999 -0.11963629,76.922456 0.05176204,66.476164 0.05176204,57.741129 0.05176204,19.588476 25.069434,8.4059309 25.069434,8.4059309 37.683984,2.6171571 59.330017,0.18339493 81.833034,-3.5462786e-4 h 0.552975 C 104.88903,0.18340202 126.54882,2.6171571 139.16337,8.4059309 c 0,0 25.01767,11.1825451 25.01767,49.3351981 0,0 0.31275,28.147614 -3.48923,47.690191"
       style="opacity:0.98999999;fill:#589dcd;fill-opacity:1;stroke:none;stroke-width:0.99999994" />
    <path
       id="path4487"
       transform="scale(0.93750002)"
       d="M 722.21289 29.566406 C 716.68994 29.566406 711.55488 30.687899 706.80859 32.929688 C 702.06231 35.085249 697.96357 38.05972 694.51172 41.853516 C 691.05988 45.561084 688.34223 49.872423 686.35742 54.787109 C 684.45891 59.701796 683.50977 64.874619 683.50977 70.306641 L 683.50977 113.50391 L 703.83203 113.50391 L 703.83203 70.306641 C 703.83203 67.719964 704.26399 65.22087 705.12695 62.806641 C 706.07621 60.306184 707.32753 58.150518 708.88086 56.339844 C 710.52048 54.442949 712.46138 52.933398 714.70508 51.8125 C 716.94877 50.605388 719.45141 50.001953 722.21289 50.001953 C 724.88807 50.001953 727.3481 50.605388 729.5918 51.8125 C 731.92179 52.933398 733.86269 54.442949 735.41602 56.339844 C 737.05564 58.150518 738.30696 60.306184 739.16992 62.806641 C 740.11917 65.22087 740.59375 67.719964 740.59375 70.306641 L 740.59375 113.50391 L 760.91602 113.50391 L 760.91602 70.306641 C 760.91602 64.874619 759.92427 59.701796 757.93945 54.787109 C 756.04094 49.872423 753.3659 45.561084 749.91406 41.853516 C 746.46221 38.05972 742.36347 35.085249 737.61719 32.929688 C 732.8709 30.687899 727.73584 29.566406 722.21289 29.566406 z M 465.74609 29.826172 C 459.79166 29.826172 454.22465 30.99035 449.04688 33.318359 C 443.95541 35.560142 439.51187 38.662664 435.71484 42.628906 C 431.91781 46.595142 428.9406 51.209169 426.7832 56.46875 C 424.6258 61.642104 423.54688 67.160307 423.54688 73.023438 C 423.54687 78.886574 424.6258 84.447457 426.7832 89.707031 C 428.9406 94.880392 431.91781 99.44978 435.71484 103.41602 C 439.51187 107.29603 443.95541 110.40051 449.04688 112.72852 C 454.22465 115.05652 459.79166 116.2207 465.74609 116.2207 C 471.70053 116.2207 477.22299 115.05652 482.31445 112.72852 C 487.40593 110.40051 491.84945 107.29603 495.64648 103.41602 C 499.44352 99.44978 502.42072 94.880392 504.57812 89.707031 C 506.73553 84.447457 507.81445 78.886574 507.81445 73.023438 C 507.81445 67.160307 506.73553 61.642104 504.57812 56.46875 C 502.42072 51.209169 499.44352 46.595142 495.64648 42.628906 C 491.84945 38.662664 487.40593 35.560142 482.31445 33.318359 C 477.22299 30.99035 471.70053 29.826172 465.74609 29.826172 z M 636.94727 29.826172 C 630.99283 29.826172 625.42581 30.99035 620.24805 33.318359 C 615.15658 35.560142 610.71305 38.662664 606.91602 42.628906 C 603.11898 46.595142 600.14178 51.209169 597.98438 56.46875 C 595.82697 61.642104 594.74805 67.160307 594.74805 73.023438 C 594.74805 78.886574 595.82697 84.447457 597.98438 89.707031 C 600.14178 94.880392 603.11898 99.44978 606.91602 103.41602 C 610.71305 107.29603 615.15658 110.40051 620.24805 112.72852 C 625.42581 115.05652 630.99283 116.2207 636.94727 116.2207 C 642.9017 116.2207 648.42415 115.05652 653.51562 112.72852 C 658.6071 110.40051 663.05063 107.29603 666.84766 103.41602 C 670.64468 99.44978 673.62189 94.880392 675.7793 89.707031 C 677.9367 84.447457 679.01562 78.886574 679.01562 73.023438 C 679.01562 67.160307 677.9367 61.642104 675.7793 56.46875 C 673.62189 51.209169 670.64468 46.595142 666.84766 42.628906 C 663.05063 38.662664 658.6071 35.560142 653.51562 33.318359 C 648.42415 30.99035 642.9017 29.826172 636.94727 29.826172 z M 78.615234 31.507812 L 78.615234 82.205078 C 78.615234 86.774876 79.479156 91.086216 81.205078 95.138672 C 83.017296 99.191135 85.432761 102.72635 88.453125 105.74414 C 91.473489 108.76193 95.012442 111.17761 99.068359 112.98828 C 103.12428 114.71273 107.43802 115.57422 112.01172 115.57422 C 116.41282 115.57422 120.59874 114.7981 124.56836 113.24609 C 128.53798 111.60787 132.07693 109.27951 135.18359 106.26172 C 138.29025 109.27951 141.82725 111.60787 145.79688 113.24609 C 149.85279 114.7981 154.03871 115.57422 158.35352 115.57422 C 163.01351 115.57422 167.37182 114.71273 171.42773 112.98828 C 175.48365 111.17761 179.02065 108.76193 182.04102 105.74414 C 185.06138 102.72635 187.43619 99.191135 189.16211 95.138672 C 190.97433 91.086216 191.87891 86.774876 191.87891 82.205078 L 191.87891 31.507812 L 171.29883 31.507812 L 171.29883 82.205078 C 171.29883 85.826426 170.0475 88.888215 167.54492 91.388672 C 165.04233 93.889122 161.97795 95.138672 158.35352 95.138672 C 154.72908 95.138672 151.66665 93.889122 149.16406 91.388672 C 146.74777 88.888215 145.53906 85.826426 145.53906 82.205078 L 145.53906 31.507812 L 124.95703 31.507812 L 124.95703 82.205078 C 124.95703 85.826426 123.70571 88.888215 121.20312 91.388672 C 118.70054 93.889122 115.63616 95.138672 112.01172 95.138672 C 108.38728 95.138672 105.32485 93.889122 102.82227 91.388672 C 100.40597 88.888215 99.197266 85.826426 99.197266 82.205078 L 99.197266 31.507812 L 78.615234 31.507812 z M 317.34961 31.636719 C 311.74037 31.636719 306.5627 32.758211 301.81641 35 C 297.07012 37.241789 292.96942 40.258946 289.51758 44.052734 C 286.06573 47.760309 283.34809 52.114328 281.36328 57.115234 C 279.37848 62.029921 278.38672 67.202744 278.38672 72.634766 C 278.38672 78.066787 279.37848 83.241564 281.36328 88.15625 C 283.34809 93.070936 286.06573 97.424955 289.51758 101.21875 C 292.96942 104.92632 297.07012 107.9008 301.81641 110.14258 C 306.5627 112.38437 311.74037 113.50391 317.34961 113.50391 L 356.31055 113.50391 L 356.31055 62.289062 L 316.70117 62.289062 L 316.70117 82.853516 L 335.85938 82.853516 L 335.85938 92.941406 L 317.34961 92.941406 C 314.58814 92.941406 312.0855 92.380663 309.8418 91.259766 C 307.5981 90.052654 305.65525 88.543096 304.01562 86.732422 C 302.4623 84.835521 301.21098 82.679855 300.26172 80.265625 C 299.39876 77.765168 298.9668 75.221443 298.9668 72.634766 C 298.9668 70.048089 299.39876 67.548995 300.26172 65.134766 C 301.21098 62.634309 302.4623 60.434004 304.01562 58.537109 C 305.65525 56.640215 307.5981 55.132617 309.8418 54.011719 C 312.0855 52.804601 314.58814 52.201172 317.34961 52.201172 L 356.31055 52.201172 L 356.31055 31.636719 L 317.34961 31.636719 z M 360.82617 31.636719 L 382.05469 92.552734 C 383.00394 95.398079 384.38504 98.071809 386.19727 100.57227 C 388.09578 103.07272 390.25363 105.31375 392.66992 107.29688 C 395.17251 109.19377 397.89015 110.70332 400.82422 111.82422 C 403.75829 112.94511 406.7355 113.50391 409.75586 113.50391 L 422.70117 113.50391 L 422.70117 93.199219 L 409.75586 93.199219 C 407.25328 93.199219 405.3976 92.510418 404.18945 91.130859 C 402.98131 89.751301 401.94694 87.939055 401.08398 85.697266 L 393.70508 64.357422 L 408.33203 64.357422 L 408.33203 43.792969 L 386.58594 43.792969 L 382.31445 31.636719 L 360.82617 31.636719 z M 512.30859 31.636719 L 512.30859 113.50391 L 551.26953 113.50391 C 556.61989 113.50391 561.66973 112.42705 566.41602 110.27148 C 571.1623 108.11592 575.30365 105.18413 578.8418 101.47656 C 582.37994 97.768988 585.14215 93.457655 587.12695 88.542969 C 589.19807 83.542062 590.23242 78.239235 590.23242 72.634766 C 590.23242 66.944076 589.19807 61.641249 587.12695 56.726562 C 585.14215 51.725656 582.37994 47.371637 578.8418 43.664062 C 575.30365 39.956494 571.1623 37.024703 566.41602 34.869141 C 561.66973 32.713572 556.61989 31.636719 551.26953 31.636719 L 512.30859 31.636719 z M 196.45117 32.154297 L 196.45117 74.833984 C 196.45117 80.179786 197.40031 85.309923 199.29883 90.224609 C 201.28363 95.139296 204.00128 99.493314 207.45312 103.28711 C 210.90497 106.99468 215.00567 109.96915 219.75195 112.21094 C 224.49824 114.3665 229.63135 115.44531 235.1543 115.44531 C 240.67725 115.44531 245.81231 114.3665 250.55859 112.21094 C 255.30488 109.96915 259.40362 106.99468 262.85547 103.28711 C 266.30731 99.493314 268.98235 95.139296 270.88086 90.224609 C 272.86567 85.309923 273.85938 80.179786 273.85938 74.833984 L 273.85938 32.154297 L 253.53711 32.154297 L 253.53711 74.833984 C 253.53711 77.420661 253.06254 79.921708 252.11328 82.335938 C 251.25032 84.750174 249.99901 86.90584 248.35938 88.802734 C 246.80605 90.613408 244.8632 92.121007 242.5332 93.328125 C 240.28951 94.449016 237.82948 95.009766 235.1543 95.009766 C 232.39282 95.009766 229.89018 94.449016 227.64648 93.328125 C 225.40278 92.121007 223.46189 90.613408 221.82227 88.802734 C 220.26894 86.90584 219.01762 84.750174 218.06836 82.335938 C 217.2054 79.921708 216.77344 77.420661 216.77344 74.833984 L 216.77344 32.154297 L 196.45117 32.154297 z M 47.734375 41 C 41.806636 41 36.998047 45.802537 36.998047 51.726562 C 36.998047 57.649253 41.806636 62.451172 47.734375 62.451172 C 53.663456 62.451172 58.46875 57.649253 58.46875 51.726562 C 58.46875 45.802537 53.663456 41 47.734375 41 z M 465.74609 50.130859 C 468.85275 50.130859 471.70018 50.776974 474.28906 52.070312 C 476.96424 53.277431 479.25188 54.959672 481.15039 57.115234 C 483.1352 59.184576 484.68675 61.598297 485.80859 64.357422 C 486.93045 67.116546 487.49219 70.005652 487.49219 73.023438 C 487.49219 76.04123 486.93045 78.930329 485.80859 81.689453 C 484.68675 84.448571 483.1352 86.862299 481.15039 88.931641 C 479.25188 91.000982 476.96424 92.681271 474.28906 93.974609 C 471.70018 95.181728 468.85275 95.785156 465.74609 95.785156 C 462.63943 95.785156 459.74745 95.181728 457.07227 93.974609 C 454.39709 92.681271 452.06684 91.000982 450.08203 88.931641 C 448.18352 86.862299 446.67459 84.448571 445.55273 81.689453 C 444.43089 78.930329 443.86914 76.04123 443.86914 73.023438 C 443.86914 70.005652 444.43089 67.116546 445.55273 64.357422 C 446.67459 61.598297 448.18352 59.184576 450.08203 57.115234 C 452.06684 54.959672 454.39709 53.277431 457.07227 52.070312 C 459.74745 50.776974 462.63943 50.130859 465.74609 50.130859 z M 636.94727 50.130859 C 640.05393 50.130859 642.90135 50.776974 645.49023 52.070312 C 648.16542 53.277431 650.45305 54.959672 652.35156 57.115234 C 654.33638 59.184576 655.88792 61.598297 657.00977 64.357422 C 658.13162 67.116546 658.69336 70.005652 658.69336 73.023438 C 658.69336 76.04123 658.13162 78.930329 657.00977 81.689453 C 655.88792 84.448571 654.33638 86.862299 652.35156 88.931641 C 650.45305 91.000982 648.16542 92.681271 645.49023 93.974609 C 642.90135 95.181728 640.05393 95.785156 636.94727 95.785156 C 633.84061 95.785156 630.94861 95.181728 628.27344 93.974609 C 625.59826 92.681271 623.26802 91.000982 621.2832 88.931641 C 619.38469 86.862299 617.87576 84.448571 616.75391 81.689453 C 615.63206 78.930329 615.07031 76.04123 615.07031 73.023438 C 615.07031 70.005652 615.63206 67.116546 616.75391 64.357422 C 617.87576 61.598297 619.38469 59.184576 621.2832 57.115234 C 623.26802 54.959672 625.59826 53.277431 628.27344 52.070312 C 630.94861 50.776974 633.84061 50.130859 636.94727 50.130859 z M 532.88867 52.201172 L 551.26953 52.201172 C 553.85841 52.201172 556.27583 52.761915 558.51953 53.882812 C 560.76323 54.917483 562.70412 56.382403 564.34375 58.279297 C 566.06967 60.089971 567.40816 62.245637 568.35742 64.746094 C 569.30668 67.160323 569.78125 69.789421 569.78125 72.634766 C 569.78125 75.48011 569.30668 78.15384 568.35742 80.654297 C 567.40816 83.068527 566.06967 85.181514 564.34375 86.992188 C 562.70412 88.802861 560.76323 90.267774 558.51953 91.388672 C 556.27583 92.423343 553.85841 92.941406 551.26953 92.941406 L 532.88867 92.941406 L 532.88867 52.201172 z "
       style="fill:#ffffff;stroke:none;stroke-width:1.0666666" />
    <g
       id="flowRoot4603"
       style="font-style:normal;font-weight:normal;font-size:129.33334351px;line-height:125%;font-family:sans-serif;letter-spacing:0px;word-spacing:0px;fill:#ffffff;fill-opacity:1;stroke:none;stroke-width:0.99956983px;stroke-linecap:butt;stroke-linejoin:miter;stroke-opacity:1"
       transform="matrix(0.93830337,0,0,0.93750378,43.859246,-219.51885)"
       aria-label="wugtodon" />
  </g>
</svg>
