<?xml version="1.0" encoding="UTF-8" standalone="no"?>
<svg
   xmlns:dc="http://purl.org/dc/elements/1.1/"
   xmlns:cc="http://creativecommons.org/ns#"
   xmlns:rdf="http://www.w3.org/1999/02/22-rdf-syntax-ns#"
   xmlns:svg="http://www.w3.org/2000/svg"
   xmlns="http://www.w3.org/2000/svg"
   xmlns:sodipodi="http://sodipodi.sourceforge.net/DTD/sodipodi-0.dtd"
   xmlns:inkscape="http://www.inkscape.org/namespaces/inkscape"
   width="61.077141mm"
   height="65.47831mm"
   viewBox="0 0 216.41507 232.00976"
   version="1.1"
   id="svg6028"
   sodipodi:docname="logo_alt.svg"
   inkscape:version="0.92.1 r">
  <metadata
     id="metadata6034">
    <rdf:RDF>
      <cc:Work
         rdf:about="">
        <dc:format>image/svg+xml</dc:format>
        <dc:type
           rdf:resource="http://purl.org/dc/dcmitype/StillImage" />
        <dc:title></dc:title>
      </cc:Work>
    </rdf:RDF>
  </metadata>
  <defs
     id="defs6032" />
  <sodipodi:namedview
     pagecolor="#ffffff"
     bordercolor="#666666"
     borderopacity="1"
     objecttolerance="10"
     gridtolerance="10"
     guidetolerance="10"
     inkscape:pageopacity="0"
     inkscape:pageshadow="2"
     inkscape:window-width="1112"
     inkscape:window-height="670"
     id="namedview6030"
     showgrid="false"
     inkscape:zoom="0.95362368"
     inkscape:cx="-105.83992"
     inkscape:cy="123.73854"
     inkscape:window-x="0"
     inkscape:window-y="23"
     inkscape:window-maximized="0"
     inkscape:current-layer="svg6028" />
  <g
     id="layer1"
     inkscape:label="レイヤー 1"
     transform="matrix(3.543307,0,0,3.543307,-263.83971,-410.1762)">
    <path
       id="path5950"
       d="m 134.23802,155.01442 c -0.89817,4.61892 -8.04121,9.67388 -16.24541,10.65354 -4.27849,0.51047 -8.48995,0.97966 -12.98187,0.77364 -7.345541,-0.33655 -13.14168,-1.7533 -13.14168,-1.7533 0,0.71508 0.0441,1.39594 0.132292,2.0327 0.954969,7.24923 7.1882,7.6835 13.092998,7.886 5.95912,0.2039 11.26525,-1.46932 11.26525,-1.46932 l 0.24518,5.38762 c 0,0 -4.16842,2.23838 -11.59404,2.65007 -4.09469,0.22507 -9.178927,-0.10301 -15.100655,-1.67041 -12.843228,-3.39936 -15.05197,-17.08961 -15.389931,-30.98059 -0.102659,-4.12432 -0.03951,-8.01335 -0.03951,-11.26596 0,-14.20424 9.306631,-18.36773 9.306631,-18.36773 4.692297,-2.15511 12.744803,-3.0614 21.115865,-3.12984 h 0.20567 c 8.37106,0.0684 16.42851,0.97473 21.12081,3.12984 0,0 9.30663,4.16349 9.30663,18.36773 0,0 0.11641,10.47997 -1.29823,17.75601"
       inkscape:connector-curvature="0"
       style="fill:#589dcd;fill-opacity:1;stroke-width:0.28222224" />
    <path
       id="path5952"
       d="m 92.999882,142.98382 c 0,2.54388 -2.062339,4.60622 -4.606572,4.60622 -2.543881,0 -4.605867,-2.06234 -4.605867,-4.60622 0,-2.54388 2.061986,-4.60657 4.605867,-4.60657 2.544233,0 4.606572,2.06269 4.606572,4.60657 m 16.606378,0 c 0,2.54388 -2.06269,4.60622 -4.60657,4.60622 -2.54388,0 -4.60622,-2.06234 -4.60622,-4.60622 0,-2.54388 2.06234,-4.60657 4.60622,-4.60657 2.54388,0 4.60657,2.06269 4.60657,4.60657 m 16.60607,0 c 0,2.54388 -2.06234,4.60622 -4.60622,4.60622 -2.54388,0 -4.60622,-2.06234 -4.60622,-4.60622 0,-2.54388 2.06234,-4.60657 4.60622,-4.60657 2.54388,0 4.60622,2.06269 4.60622,4.60657"
       inkscape:connector-curvature="0"
       style="fill:#ffffff;stroke-width:0.28222224" />
  </g>
</svg>
